<svg width="178" height="100" viewBox="0 0 178 100" fill="none" xmlns="http://www.w3.org/2000/svg">
<path d="M0.995986 80.4946C0.170523 79.3878 0.398581 77.8214 1.50537 76.996L19.5415 63.5443C20.6483 62.7188 22.2147 62.9469 23.0401 64.0536C23.8656 65.1604 23.6375 66.7268 22.5308 67.5523L6.49865 79.5093L18.4557 95.5415C19.2812 96.6482 19.0531 98.2146 17.9463 99.0401C16.8395 99.8656 15.2731 99.6375 14.4477 98.5307L0.995986 80.4946ZM3.36019 76.526C4.93275 76.755 6.57638 76.9669 8.28547 77.1587L7.72772 82.1275C5.96638 81.9298 4.26849 81.711 2.63981 81.4739L3.36019 76.526ZM18.2401 77.9895C21.4372 78.1701 24.7833 78.2807 28.2526 78.308L28.2133 83.3079C24.6633 83.2799 21.2362 83.1668 17.9581 82.9815L18.2401 77.9895ZM38.282 78.1557C41.5443 78.0317 44.8836 77.8324 48.2819 77.5489L48.6976 82.5316C45.2224 82.8215 41.8078 83.0252 38.4719 83.1521L38.282 78.1557ZM58.2399 76.4883C61.511 76.0633 64.8179 75.5569 68.1459 74.9617L69.0261 79.8836C65.6171 80.4933 62.2314 81.0117 58.8841 81.4466L58.2399 76.4883ZM77.9482 72.9559C81.1742 72.2101 84.4058 71.3757 87.6299 70.4462L89.0149 75.2505C85.7017 76.2057 82.3838 77.0623 79.0745 77.8274L77.9482 72.9559ZM97.1486 67.4078C100.276 66.3088 103.383 65.1129 106.458 63.8142L108.403 68.4202C105.229 69.7606 102.026 70.9933 98.8065 72.1249L97.1486 67.4078ZM115.509 59.6365C118.465 58.1495 121.378 56.5571 124.236 54.8534L126.796 59.1485C123.831 60.9154 120.814 62.5649 117.756 64.1032L115.509 59.6365ZM132.579 49.4439C135.273 47.5461 137.902 45.5352 140.458 43.4059L143.659 47.2472C140.996 49.4655 138.259 51.5581 135.459 53.5311L132.579 49.4439ZM147.807 36.74C150.137 34.4379 152.388 32.0184 154.549 29.4762L158.359 32.7147C156.102 35.3694 153.752 37.8951 151.321 40.2972L147.807 36.74ZM160.629 21.6532C162.516 18.9913 164.313 16.2121 166.011 13.3109L170.326 15.8368C168.554 18.8639 166.678 21.7652 164.707 24.545L160.629 21.6532ZM170.645 4.56336C171.355 3.07649 172.041 1.56107 172.702 0.0166016L177.298 1.98334C176.611 3.59048 175.897 5.16824 175.158 6.71706L170.645 4.56336Z" fill="white"/>
</svg>
