<svg xmlns="http://www.w3.org/2000/svg"  viewBox="0 0 48 48" width="96px" height="96px"><path fill="#FFCC80" d="M34.902,23H17l-0.097,3v6.992l-4.278-4.021c-1.39-1.392-3.448-1.518-4.838,0.182c-1.235,1.393-0.928,3.556,0.31,4.789l5.692,5.692C16.903,43.001,21.562,44,24.645,44h6.879c5.101,0,9.478-4.057,9.478-9.154c0,0,0-4.83,0-10.846L34.902,23z"/><path fill="#FFCC80" d="M16.92 26.563l-2.866-15c-.312-1.628.756-3.199 2.383-3.51 1.629-.32 3.199.757 3.51 2.383l3.443 14.739C23.701 26.805 17.194 28 16.92 26.563zM35.012 24.751l1-12c.137-1.651 1.569-2.902 3.237-2.74 1.651.138 2.878 1.587 2.739 3.238l-1 12C40.859 26.814 34.873 26.402 35.012 24.751z"/><path fill="#FFCC80" d="M23.39,25.176L18.997,7.587c-0.325-1.624,0.729-3.205,2.354-3.529c1.628-0.327,3.204,0.729,3.529,2.354L28.993,23C29.318,24.624,23.675,26.604,23.39,25.176z"/><path fill="#FFCC80" d="M29.059,23l1.521-15.372c0.205-1.645,1.704-2.809,3.349-2.604c1.646,0.205,2.811,1.705,2.604,3.349L35,25.125C34.811,26.643,28.854,24.645,29.059,23z"/><g><path fill="#F2A25A" d="M19.402 9.208L23 24c.116.609 2-.219 2-.219L19.402 9.208zM35 25.125l1.209-13.23L33.027 24.77C32.938 25.874 34.938 25.878 35 25.125z"/><path fill="#F2A25A" d="M24 23A1 1 0 1 0 24 25 1 1 0 1 0 24 23zM34 24A1 1 0 1 0 34 26 1 1 0 1 0 34 24z"/></g></svg>