<svg xmlns="http://www.w3.org/2000/svg"  viewBox="0 0 48 48" width="96px" height="96px"><path fill="#FFCC80" d="M25,34l-6-7.56l6.243-2.626C27.705,22.453,30.486,22,33.315,22h1.391C36,22,38,23.186,38,24.968v0.675c0,0.581-0.402,1.091-0.981,1.231l-2.954,0.723c-1.354,0.335-2.601,0.991-3.631,1.916L25,34z"/><path fill="#FFCC80" d="M21,6c-4,0-6,4-6,4l-6,9c-4,6-3,9-3,9v14h13.989v-6C21,36,25,34,25,34l1-10.568c0,0-3,0.568-3-3.432s2-4,3-4"/><path fill="#FFCC80" d="M20.914,6C19.311,6,18,7.35,18,9c0,1.651,1.311,3,2.914,3h18.174C40.69,12,42,10.651,42,9c0-1.65-1.31-3-2.912-3H20.914z"/><path fill="#FFCC80" d="M19.914,10C18.311,10,17,11.35,17,13c0,1.651,1.311,3,2.914,3h18.174C39.69,16,41,14.651,41,13c0-1.65-1.31-3-2.912-3H19.914z"/><g><path fill="#F2A86B" d="M39.546 9.952c.013-.002.026-.001.04-.004l-.055-.007c-.91-.654-2.159-.94-3.531-.94L24 8c-.552 0-1 .447-1 1s.448 1 1 1l1-.001c0 0 0 0 0 .001h13.328c1.377 0 2.355 1 2.605 2.328C40.788 11.245 40.274 10.482 39.546 9.952zM26.927 23.047c-.313.119-.622.246-.927.39v-.005c0 0-3 .568-3-3.432 0-2.79.973-3.633 1.9-3.888C23.429 16.367 21 17.21 21 20 21 26.548 26.248 23.472 26.927 23.047z"/></g></svg>